<svg xmlns="http://www.w3.org/2000/svg" width="15.758" height="15.032" viewBox="0 0 15.758 15.032">
  <path id="Union_139" data-name="Union 139" d="M18749.873,14839.97l-5.713-5.385-5.711,5.385a1.268,1.268,0,0,1-1.812-.066,1.311,1.311,0,0,1,.059-1.844l5.58-5.258-5.58-5.26a1.315,1.315,0,0,1-.059-1.842,1.273,1.273,0,0,1,1.813-.066l5.711,5.387,5.713-5.387a1.28,1.28,0,0,1,1.818.066,1.3,1.3,0,0,1-.062,1.842l-5.58,5.26,5.58,5.258a1.305,1.305,0,0,1,.063,1.844,1.274,1.274,0,0,1-1.818.066Z" transform="translate(-18736.285 -14825.287)" fill="#393b44"/>
</svg>
