<svg xmlns="http://www.w3.org/2000/svg" width="53" height="62" viewBox="0 0 53 62">
  <g id="Group_1292" data-name="Group 1292" transform="translate(-21 -50.575)">
    <g id="Rectangle_776" data-name="Rectangle 776" transform="translate(21 50.575)" fill="#f7f7f7" stroke="#f7f7f7" stroke-width="1" opacity="0.8">
      <rect width="53" height="62" rx="5" stroke="none"/>
      <rect x="0.5" y="0.5" width="52" height="61" rx="4.5" fill="none"/>
    </g>
    <g id="_001-like" data-name="001-like" transform="translate(33.125 39.04)">
      <g id="Group_1314" data-name="Group 1314" transform="translate(0 29.836)">
        <path id="Path_3908" data-name="Path 3908" d="M26.652,32.331a7.241,7.241,0,0,0-11.562.832,11.024,11.024,0,0,0-.716,1.16,11.015,11.015,0,0,0-.716-1.16A7.241,7.241,0,0,0,2.1,32.331,8.715,8.715,0,0,0,0,38.119a10.672,10.672,0,0,0,2.939,7A65.437,65.437,0,0,0,10.3,51.994c1.113.948,2.263,1.928,3.488,3l.037.032a.842.842,0,0,0,1.11,0l.037-.032c1.225-1.072,2.375-2.052,3.488-3a65.427,65.427,0,0,0,7.356-6.873,10.672,10.672,0,0,0,2.939-7A8.715,8.715,0,0,0,26.652,32.331Zm-9.29,18.381c-.959.817-1.946,1.658-2.987,2.563-1.041-.9-2.028-1.746-2.987-2.563-5.843-4.979-9.7-8.269-9.7-12.593a7.033,7.033,0,0,1,1.677-4.674,5.623,5.623,0,0,1,4.275-1.924,5.679,5.679,0,0,1,4.648,2.616A9.986,9.986,0,0,1,13.574,36.7a.842.842,0,0,0,1.6,0,9.987,9.987,0,0,1,1.289-2.564,5.559,5.559,0,0,1,8.923-.692,7.033,7.033,0,0,1,1.677,4.674C27.065,42.443,23.205,45.733,17.362,50.712Z" transform="translate(0 -29.836)" fill="#393b44"/>
      </g>
    </g>
  </g>
</svg>
