<svg xmlns="http://www.w3.org/2000/svg" width="53" height="62" viewBox="0 0 53 62">
  <g id="Group_1313" data-name="Group 1313" transform="translate(-21 -50.575)">
    <g id="Rectangle_776" data-name="Rectangle 776" transform="translate(21 50.575)" fill="#f7f7f7" stroke="#f7f7f7" stroke-width="1" opacity="0.8">
      <rect width="53" height="62" rx="5" stroke="none"/>
      <rect x="0.5" y="0.5" width="52" height="61" rx="4.5" fill="none"/>
    </g>
    <g id="share" transform="translate(34.47 68.319)">
      <g id="Group_30" data-name="Group 30" transform="translate(0.871 1.03)">
        <path id="Union_2" data-name="Union 2" d="M6.483,18.566V3.785l-4.27,4.69a1.328,1.328,0,0,1-.985.405,1.409,1.409,0,0,1-.736-.2A.956.956,0,0,1,0,7.866a.9.9,0,0,1,.246-.606L6.471.424A1.257,1.257,0,0,1,6.6.3,1.233,1.233,0,0,1,6.949.1,1.444,1.444,0,0,1,7.47,0h0a1.444,1.444,0,0,1,.521.1A1.2,1.2,0,0,1,8.34.3a.947.947,0,0,1,.131.126l6.223,6.836a.893.893,0,0,1,.248.606.966.966,0,0,1-.492.811,1.406,1.406,0,0,1-1.721-.2L8.508,3.84V18.566a1.013,1.013,0,0,1-2.025,0Z" transform="translate(5.712)" fill="#393b44" stroke="rgba(0,0,0,0)" stroke-width="1"/>
        <path id="Path_45" data-name="Path 45" d="M12.807,23.469C2.426,23.469.411,20.7.11,20.131A.908.908,0,0,1,0,19.7V9.2A1.084,1.084,0,0,1,1.143,8.183,1.084,1.084,0,0,1,2.286,9.2V19.374c.5.454,2.879,2.14,11.036,2.066,8.093-.073,10.515-1.776,11.06-2.289v-9.7a1.151,1.151,0,0,1,2.286,0V19.482a.917.917,0,0,1-.108.431c-.3.575-2.379,3.455-13.214,3.553Z" transform="translate(0 2.864)" fill="#393b44"/>
      </g>
      <rect id="Rectangle_2974" data-name="Rectangle 2974" width="28" height="29" transform="translate(-0.47 0.256)" fill="none"/>
    </g>
  </g>
</svg>
